<svg xmlns="http://www.w3.org/2000/svg" viewBox="0 0 853 236"><defs><style>.cls-1{font-size:192.24px;font-family:MicrosoftNewTaiLue-Bold, Microsoft New Tai Lue;}.cls-1,.cls-6{font-weight:700;}.cls-2{fill:#de7400;}.cls-3{fill:#999;}.cls-4{fill:#fff;}.cls-5{fill:#666;}.cls-6{font-size:29.2px;font-family:AgencyFB-Bold, Agency FB;}.cls-7{font-size:18.92px;letter-spacing:0.01em;}.cls-8{fill:none;stroke:#de7400;stroke-miterlimit:10;}</style></defs><title>Zeichenfläche 24</title><g id="Ebene_1" data-name="Ebene 1"><text class="cls-1" transform="translate(159.5 229.17)">elmada</text><circle class="cls-2" cx="840.48" cy="216.65" r="12.52"/><rect width="149" height="236.16" rx="20.02"/><circle class="cls-3" cx="74.32" cy="174.84" r="46.83"/><circle class="cls-4" cx="72.82" cy="173.34" r="46.83"/><circle cx="93.4" cy="173.73" r="6.5"/><circle cx="53.99" cy="173.73" r="6.5"/><rect class="cls-2" x="69.53" y="123.7" width="6.62" height="13.24"/><rect class="cls-2" x="69.53" y="214.76" width="6.62" height="13.24"/><rect class="cls-5" x="22" y="100" width="28" height="8" rx="3.53"/><rect class="cls-4" x="22.6" y="100.65" width="27.4" height="7.71" rx="3.42"/><rect class="cls-5" x="59" y="100" width="28" height="8" rx="3.53"/><rect class="cls-2" x="59.6" y="100.65" width="27.4" height="7.71" rx="3.42"/></g><g id="Isolationsmodus"><polygon class="cls-4" points="130.91 104.34 112.33 119.86 123.49 119.67 115.62 133.66 136.14 115.92 124.7 116.98 130.91 104.34"/><rect class="cls-3" x="37.99" y="-0.74" width="75.03" height="106.43" rx="9.54" transform="translate(23.03 127.97) rotate(-90)"/><rect class="cls-4" x="38" y="-1" width="73" height="105" rx="9.34" transform="translate(23 126) rotate(-90)"/><text class="cls-6" transform="translate(88.36 46.63)">CO<tspan class="cls-7" x="27.53" y="7.1">2</tspan></text><path class="cls-8" d="M83.78,80.52c-5.87-14.18-8.9-19.2-11.75-18.9-5,.51-7.15,17.31-11.74,17C58,78.49,57.71,74.31,52.46,72c-2.35-1-3.28-.62-4.89-1.89-3.17-2.49-2.31-6.21-3.92-6.61-2.6-.65-5.35,9-10.76,9.45-2.33.2-4.41-1.37-5.87-2.84"/><path class="cls-8" d="M27,49.78C31.7,47.71,28.93,35,33.51,32.44c.82-.46,1.7-.31,2.68-1,1.87-1.3.84-2.91,2.68-4.18.78-.54,2.62-1.53,2.86-1,1.34,3.07,3.63,14.39,14,14.51,10.71.13,12.81-13.41,16.82-13.28,3.33.1,7.21,3.81,11.28,16.11"/><text class="cls-6" transform="translate(88.36 81.23)">€</text></g></svg>