<svg xmlns="http://www.w3.org/2000/svg" viewBox="0 0 278.21 72.95"><defs><style>.cls-1{font-size:61.4px;font-family:MicrosoftNewTaiLue-Bold, Microsoft New Tai Lue;font-weight:700;}.cls-2{fill:#de7400;}.cls-3{fill:#fff;}</style></defs><title>Zeichenfläche 13 Kopie 7</title><g id="Ebene_1" data-name="Ebene 1"><text class="cls-1" transform="translate(56.71 70.57)">elmada</text><circle class="cls-2" cx="274.21" cy="66.57" r="4"/><circle cx="32.7" cy="25.52" r="2.75"/><circle cx="16.04" cy="25.52" r="2.75"/><path d="M40.81,1.57H8.61C4,1.57.21,7.05.21,13.81V60.73C.21,67.49,4,73,8.61,73h32.2c4.64,0,8.4-5.48,8.4-12.24V13.81C49.21,7.05,45.45,1.57,40.81,1.57ZM24,45.46A19.24,19.24,0,1,1,43.22,26.22,19.23,19.23,0,0,1,24,45.46Z"/><rect class="cls-2" x="22.61" y="4.37" width="2.8" height="5.6"/><rect class="cls-2" x="22.61" y="42.87" width="2.8" height="5.6"/></g><g id="Isolationsmodus"><polygon class="cls-3" points="42.04 50.59 30.09 60.57 37.27 60.45 32.21 69.45 45.41 58.04 38.05 58.72 42.04 50.59"/></g></svg>