<svg xmlns="http://www.w3.org/2000/svg" viewBox="0 0 4052 870"><defs><style>.cls-1,.cls-47{fill:#ccc;}.cls-2{font-size:191.96px;font-family:MicrosoftNewTaiLue-Bold, Microsoft New Tai Lue;}.cls-2,.cls-44{font-weight:700;}.cls-3{fill:#de7400;}.cls-4{font-size:102px;}.cls-20,.cls-34,.cls-4{font-family:MyriadPro-Regular, Myriad Pro;}.cls-5{letter-spacing:-0.08em;}.cls-6{letter-spacing:-0.01em;}.cls-7{letter-spacing:-0.01em;}.cls-8{letter-spacing:0em;}.cls-9{letter-spacing:0em;}.cls-10{fill:#edf1f1;}.cls-11{fill:#6dba7a;}.cls-12{fill:#57649b;}.cls-13{fill:#ffe05b;}.cls-14{fill:#e9874f;}.cls-15{fill:#f8c025;}.cls-16{fill:#354d6c;}.cls-17{fill:#3e4445;}.cls-18{fill:#c75353;}.cls-19{fill:#e7836a;}.cls-20{font-size:83px;}.cls-21{letter-spacing:-0.01em;}.cls-22{letter-spacing:-0.01em;}.cls-23{letter-spacing:0em;}.cls-24{letter-spacing:0em;}.cls-25{letter-spacing:0.01em;}.cls-26{letter-spacing:-0.01em;}.cls-27{letter-spacing:0em;}.cls-28{letter-spacing:-0.01em;}.cls-29{letter-spacing:0em;}.cls-30{letter-spacing:0em;}.cls-31{letter-spacing:0em;}.cls-32{letter-spacing:0em;}.cls-33{letter-spacing:-0.01em;}.cls-34{font-size:120px;}.cls-35{letter-spacing:0.01em;}.cls-36{letter-spacing:0em;}.cls-37{letter-spacing:0.01em;}.cls-38{letter-spacing:-0.01em;}.cls-39{letter-spacing:0em;}.cls-40,.cls-46{fill:none;}.cls-40,.cls-47{stroke:#ccc;}.cls-40,.cls-46,.cls-47{stroke-miterlimit:10;}.cls-40{stroke-width:30px;}.cls-41{fill:#999;}.cls-42{fill:#fff;}.cls-43{fill:#666;}.cls-44{font-size:62.93px;font-family:AgencyFB-Bold, Agency FB;}.cls-45{font-size:40.78px;letter-spacing:0em;}.cls-46{stroke:#de7400;}</style></defs><title>elmada_scheme</title><g id="Ebene_1" data-name="Ebene 1"><rect class="cls-1" x="-0.12" y="201" width="1173.83" height="548.13" rx="124.69"/><text class="cls-2" transform="translate(1207.98 149.91)">elmada</text><circle class="cls-3" cx="1887.97" cy="137.41" r="12.51"/><rect class="cls-1" x="2627.97" y="41.42" width="1424.03" height="828.58" rx="150"/><text class="cls-4" transform="translate(2770.98 363.25)"><tspan class="cls-5">Y</tspan><tspan x="47.43" y="0">our</tspan><tspan x="0" y="122.4">mic</tspan><tspan class="cls-6" x="154.63" y="122.4">r</tspan><tspan x="186.97" y="122.4">o</tspan><tspan class="cls-7" x="242.96" y="122.4">g</tspan><tspan class="cls-8" x="299.37" y="122.4">r</tspan><tspan class="cls-9" x="333.13" y="122.4">id</tspan><tspan x="0" y="244.8">model</tspan></text><rect class="cls-10" x="3263" y="138.55" width="196.03" height="196.03"/><rect class="cls-10" x="3480.59" y="138.55" width="196.03" height="196.03"/><rect class="cls-10" x="3698.18" y="356.76" width="196.03" height="196.03"/><rect class="cls-10" x="3263" y="356.76" width="196.03" height="196.03"/><rect class="cls-10" x="3480.59" y="356.76" width="196.03" height="196.03"/><rect class="cls-10" x="3263" y="574.97" width="196.03" height="196.03"/><rect class="cls-10" x="3480.59" y="574.97" width="196.03" height="196.03"/><rect class="cls-10" x="3698.18" y="138.55" width="196.03" height="196.03"/><rect class="cls-10" x="3698.18" y="574.97" width="196.03" height="196.03"/><path class="cls-10" d="M3687.68,521.81v.4a.91.91,0,0,0,.9.9.93.93,0,0,0,.9-.9v-.4a.9.9,0,0,0-1.8,0Z"/><path class="cls-11" d="M3375.53,303.51a57.75,57.75,0,0,1-10.15,4V281.7l21.55-21.54a2.5,2.5,0,0,0,0-3.51,2.47,2.47,0,0,0-3.51,0l-18,18V244.53L3386.93,223a2.5,2.5,0,0,0,0-3.51,2.47,2.47,0,0,0-3.51,0l-18,18V202.18a4.39,4.39,0,0,0-4.36-4.37,4.39,4.39,0,0,0-4.38,4.37V237.5l-18-18a2.48,2.48,0,1,0-3.51,3.51l21.54,21.54v30.16l-18-18a2.48,2.48,0,1,0-3.51,3.51l21.54,21.53v25.78a58.76,58.76,0,0,1-10.14-4c-52.63-26.71-28.62-113.81,14.52-137.84C3404.15,189.7,3428.16,276.8,3375.53,303.51Z"/><path class="cls-12" d="M3791.07,461.65c-13.57,14.75-49,30.29-62.75,29.84,6.37-12.19,37.4-35.47,56.91-40,0,.14,0,.28,0,.43A11,11,0,0,0,3791.07,461.65Z"/><path class="cls-12" d="M3804.17,451.94a8,8,0,1,1-8-8A8,8,0,0,1,3804.17,451.94Z"/><path class="cls-12" d="M3802.08,442.68a11,11,0,0,0-11.71,0c-5.91-19.15-1.45-57.62,5.86-69.26C3803.54,385,3808,423.55,3802.08,442.68Z"/><path class="cls-12" d="M3864.07,491.49c-13.74.45-49.19-15.09-62.75-29.84a11,11,0,0,0,5.85-9.71,3,3,0,0,0,0-.43C3826.67,456,3857.69,479.3,3864.07,491.49Z"/><path class="cls-12" d="M3806.82,534.59c0,1.22-8.34,1.58-10.6,1.58h0c-2.26,0-10.61-.36-10.61-1.58l6.5-68.42c0-1.16,1.65-2.12,3.74-2.22h.79c2.09.1,3.74,1.06,3.74,2.22Z"/><path class="cls-13" d="M3552.49,165.84h39.21a2.4,2.4,0,0,1,2.26,1.57l26.84,72.34a2.4,2.4,0,0,1-2.25,3.24H3582a2.41,2.41,0,0,0-2.25,3.28l22.3,57.74a2.41,2.41,0,0,1-4.19,2.28l-61.14-84a2.4,2.4,0,0,1,1.94-3.82h27.19a2.41,2.41,0,0,0,2.24-3.28l-17.85-46.1A2.41,2.41,0,0,1,3552.49,165.84Z"/><circle class="cls-14" cx="3796.19" cy="236.45" r="39.88"/><path class="cls-14" d="M3796.19,191.62h0a3.14,3.14,0,0,1-3.13-3.13v-17a3.14,3.14,0,0,1,3.13-3.13h0a3.14,3.14,0,0,1,3.13,3.13v17A3.14,3.14,0,0,1,3796.19,191.62Z"/><path class="cls-14" d="M3796.19,304.73h0a3.14,3.14,0,0,1-3.13-3.13v-17a3.13,3.13,0,0,1,3.13-3.13h0a3.13,3.13,0,0,1,3.13,3.13v17A3.14,3.14,0,0,1,3796.19,304.73Z"/><rect class="cls-14" x="3849.62" y="224.96" width="6.26" height="23.21" rx="3.13" transform="translate(4089.32 -3616.18) rotate(90)"/><rect class="cls-14" x="3736.51" y="224.96" width="6.26" height="23.21" rx="3.13" transform="translate(3976.2 -3503.07) rotate(90)"/><path class="cls-14" d="M3828,204.78h0a3.13,3.13,0,0,1,0-4.42l12-12a3.13,3.13,0,0,1,4.42,0h0a3.13,3.13,0,0,1,0,4.42l-12,12A3.13,3.13,0,0,1,3828,204.78Z"/><path class="cls-14" d="M3748,284.77h0a3.16,3.16,0,0,1,0-4.43l12-12a3.14,3.14,0,0,1,4.43,0h0a3.16,3.16,0,0,1,0,4.43l-12,12A3.16,3.16,0,0,1,3748,284.77Z"/><path class="cls-14" d="M3828,268.35h0a3.13,3.13,0,0,1,4.42,0l12,12a3.14,3.14,0,0,1,0,4.43h0a3.14,3.14,0,0,1-4.42,0l-12-12A3.14,3.14,0,0,1,3828,268.35Z"/><path class="cls-14" d="M3748,188.37h0a3.14,3.14,0,0,1,4.43,0l12,12a3.14,3.14,0,0,1,0,4.42h0a3.14,3.14,0,0,1-4.43,0l-12-12A3.14,3.14,0,0,1,3748,188.37Z"/><path class="cls-15" d="M3382.43,489.74h-39V516c2.24,1.95,9.7,8.16,15.94,10v1.22a.56.56,0,0,0,.6.51h5.73a.56.56,0,0,0,.6-.51v-1.28c7.43-2.2,15.43-9.86,16.08-10.49Z"/><path class="cls-15" d="M3390.49,426.48,3337,446.18c-3.77,1.39-7.83-1.1-9-5.53l-1.19-4.44c-1.18-4.43.94-9.2,4.71-10.59l53.46-19.7c3.77-1.39,7.83,1.1,9,5.53l1.19,4.44C3396.38,420.32,3394.26,425.08,3390.49,426.48Z"/><path class="cls-15" d="M3390.49,453.15l-4.69,1.73-10.77,4-12,4.41-8.22,3a3,3,0,0,0-1,.36c-.48.47.46,1.21.81,1.64,0,.35,1.15,1.42,1.38,1.7l1.2,1.48c4.74,5.91,4.7,14.5,4.93,22.09.07,2.13-1.74,1.55-2.93,1.26a37.83,37.83,0,0,1-5.72-1.7,9.28,9.28,0,0,0-2.29-.79c-.58-.08-1.17,0-1.76-.07a10.1,10.1,0,0,1-3.73-1.34,1.1,1.1,0,0,1-.26-.18,1.22,1.22,0,0,1-.21-.65,34.43,34.43,0,0,0-3.25-10.74,11.34,11.34,0,0,0-3.8-4.22,10,10,0,0,0-3.66-1.72c-.39-.09-.78-.14-1.16-.25a8.25,8.25,0,0,1-5.43-5.82l-1.18-4.44c-1.19-4.43.93-9.19,4.7-10.59L3385,432.6c3.78-1.39,7.84,1.1,9,5.53l1.18,4.44C3396.38,447,3394.26,451.77,3390.49,453.15Z"/><path class="cls-15" d="M3383.65,402.78l-38.34,14.13c-3.77,1.39-7.83-1.1-9-5.53l-1.19-4.44c-1.18-4.43.94-9.19,4.71-10.58l38.34-14.14c3.78-1.39,7.83,1.1,9,5.53l1.18,4.44C3389.55,396.62,3387.43,401.39,3383.65,402.78Z"/><path class="cls-15" d="M3371.19,468.76l.61-1.47a6.19,6.19,0,0,1,2.63-3.37,34.59,34.59,0,0,1,4.26-1.64l4.7-1.78a3.89,3.89,0,0,1,1.66-.37c1,.06,1.52,1,1.93,1.94a14.76,14.76,0,0,1-.95,13.44,34.29,34.29,0,0,0-5.6,14.57,1.14,1.14,0,0,1-.21.65.93.93,0,0,1-.26.18,10,10,0,0,1-3.73,1.34c-.58.05-1.17,0-1.76.07a9.28,9.28,0,0,0-2.29.79,38.34,38.34,0,0,1-5.72,1.71,9.63,9.63,0,0,1-1.92.32.49.49,0,0,1-.4-.13.69.69,0,0,1-.12-.46,19,19,0,0,1,.54-4.83A139.22,139.22,0,0,1,3371.19,468.76Z"/><path class="cls-16" d="M3650.15,474.85l-9-70.51a10.17,10.17,0,0,0-10.07-8.87H3526.14a10.16,10.16,0,0,0-10.07,8.87l-9,70.51a10.07,10.07,0,0,0,0,2.8,17.69,17.69,0,0,0,2.42,6.62,23.3,23.3,0,0,0,2.67,3.58,12.49,12.49,0,0,0,2,1.95,11.77,11.77,0,0,0,2.73,1.35l.94.25h55.06l-4.95,22c0,.51,8.34.67,10.6.67h.05c2.26,0,10.6-.16,10.6-.67l-4.95-22h55.06l.94-.25c2.37-.68,4.1-2.43,5.61-4.3a21.55,21.55,0,0,0,3.28-5.52,12.34,12.34,0,0,0,1-3.68A10.47,10.47,0,0,0,3650.15,474.85Zm-6.21,2.4a3.64,3.64,0,0,1-1.5,1.88,3.57,3.57,0,0,1-1.93.56H3516.69a3.57,3.57,0,0,1-1.93-.56,3.47,3.47,0,0,1-1.62-3.5l9-70.51a4,4,0,0,1,4-3.52h104.93a4,4,0,0,1,4,3.52l9,70.51A3.53,3.53,0,0,1,3643.94,477.25Z"/><path class="cls-16" d="M3556.29,440.87l-1.7,34.75a1.28,1.28,0,0,1-1.28,1.21h-32.94a3.49,3.49,0,0,1-3.25-2.27,3.34,3.34,0,0,1-.12-1.51l4.23-32.41a1.28,1.28,0,0,1,1.27-1.11H3555A1.27,1.27,0,0,1,3556.29,440.87Z"/><path class="cls-16" d="M3558,406l-1.39,28.4a1.28,1.28,0,0,1-1.28,1.22h-32a1.29,1.29,0,0,1-1.27-1.45l3.43-26.24a3.79,3.79,0,0,1,3.78-3.27h27.41A1.27,1.27,0,0,1,3558,406Z"/><path class="cls-16" d="M3596.13,435.63h-34.29a1.29,1.29,0,0,1-1.28-1.35l1.39-28.39a1.28,1.28,0,0,1,1.28-1.22h31.51a1.28,1.28,0,0,1,1.28,1.22l1.39,28.39A1.28,1.28,0,0,1,3596.13,435.63Z"/><path class="cls-16" d="M3598.19,476.83h-38.41a1.27,1.27,0,0,1-1.27-1.34l1.7-34.74a1.28,1.28,0,0,1,1.28-1.22h35a1.28,1.28,0,0,1,1.28,1.22l1.7,34.74A1.27,1.27,0,0,1,3598.19,476.83Z"/><path class="cls-16" d="M3640.17,474.56a3.31,3.31,0,0,1-1.42,1.74,3.4,3.4,0,0,1-1.83.53h-32.26a1.28,1.28,0,0,1-1.28-1.21l-1.7-34.75a1.27,1.27,0,0,1,1.27-1.34h31.85a1.27,1.27,0,0,1,1.26,1.11l4.23,32.41A3.2,3.2,0,0,1,3640.17,474.56Z"/><path class="cls-16" d="M3633.88,435.63h-31.27a1.28,1.28,0,0,1-1.28-1.22l-1.39-28.4a1.27,1.27,0,0,1,1.27-1.34h26.73a3.8,3.8,0,0,1,3.79,3.27l3.42,26.24A1.28,1.28,0,0,1,3633.88,435.63Z"/><path class="cls-17" d="M3417.07,667.55v72.79a.71.71,0,0,1-.71.71h-11.48V717a.9.9,0,0,0-.9-.9h-34.14a.9.9,0,0,0-.91.9v24.07h-61.37V656.71a4.29,4.29,0,0,1-1.34-7,4.27,4.27,0,0,1,3-1.26h22.17a4.29,4.29,0,0,1,3,7.33,4.38,4.38,0,0,1-1.54,1V687.3L3360.45,667a.72.72,0,0,1,1.14.57v19.82L3389.22,667a.71.71,0,0,1,1.13.57v18.32L3415.94,667A.71.71,0,0,1,3417.07,667.55Z"/><path class="cls-17" d="M3320.23,644.62a19.11,19.11,0,0,1-1.06-3.63,15.45,15.45,0,0,1-.27-3.93,13.92,13.92,0,0,1,.92-4.15,13.43,13.43,0,0,1,2.47-3.85,21.1,21.1,0,0,1,6.88-4.78c2.34-1.07,4.53-1.82,6.37-2.62l1.51-.67,1.5-.66c1-.44,1.95-.89,2.86-1.35s1.79-1,2.53-1.4a18.75,18.75,0,0,0,4.31-3.8,24.47,24.47,0,0,0,1.83-2.53,25.31,25.31,0,0,0,1.56-2.93c.45-1.06.85-2.17,1.25-3.39a12.43,12.43,0,0,1,1.24,3.64,16.33,16.33,0,0,1,.18,4,18.52,18.52,0,0,1-.83,4,19.91,19.91,0,0,1-1.76,3.78,19.42,19.42,0,0,1-2.67,3.36,23.81,23.81,0,0,1-3.24,2.63,34.26,34.26,0,0,1-3.34,2c-.56.3-1.12.57-1.67.85l-.84.38-.87.39a68.12,68.12,0,0,1-6.83,2.31c-1,.32-2,.61-2.84,1a16.59,16.59,0,0,0-2.47,1.17,10.1,10.1,0,0,0-2,1.52,12.53,12.53,0,0,0-1.76,2.35,23.14,23.14,0,0,0-1.49,3C3321.18,642.31,3320.76,643.46,3320.23,644.62Z"/><path class="cls-18" d="M3587.66,703.69c3,5.63,6,12.27,6,18.09a12.37,12.37,0,0,1-1.88,6.87c-2.83,4.35-8.37,7.18-14.12,7.2a16.49,16.49,0,0,1-11.1-4,12.58,12.58,0,0,1-4.46-10c.16-4.35,2.16-8.94,6.31-14.47,1-1.34,2.19-2.68,3.44-4.11,2.87-3.26,6-6.84,7.41-10.94A39.83,39.83,0,0,1,3587.66,703.69Z"/><path class="cls-18" d="M3624.26,695.07c-.11-2.8-.39-5.6-.65-8.39a197.48,197.48,0,0,0-3.71-23.3c-1.37-6.27-2.51-13.48-7.37-18.11-.07-.07-2.45-2.51-2.5-1.78a36.66,36.66,0,0,1-8.26,21l-.43.51a6.76,6.76,0,0,0-.1-.77c-1.16-7.76-1.57-15.65-3.21-23.4a132.74,132.74,0,0,0-6.92-22.62,24.57,24.57,0,0,0-2.36-4.73,37.45,37.45,0,0,0-3.17-3.83c-.48-.52-2.45-1.78-2.37-2.49a62.66,62.66,0,0,1-11.95,30.42,101.71,101.71,0,0,0-7,10.6.27.27,0,0,1-.44,0,45.78,45.78,0,0,0-4.91-6.52c-1.38-1.54-2.89-3.81-4.82-4.69-.64,8.18,0,16.09-2.64,24.07-1.22,3.63-4,6.75-6.27,9.8-.88,1.21-1.75,2.42-2.6,3.65a61,61,0,0,0-8.07,15.21,34.46,34.46,0,0,0-1.21,4.83,30.83,30.83,0,0,0-.45,4.8,35,35,0,0,0,.56,5.9c3.46,19,22.47,33.54,45.4,33.54a51.76,51.76,0,0,0,7.05-.49,49.58,49.58,0,0,0,17.78-5.95,41.8,41.8,0,0,0,19.12-23.48A40.09,40.09,0,0,0,3624.26,695.07Zm-26.4,30.33c-3.79,5.84-11.22,9.63-18.92,9.65h-.1a22.49,22.49,0,0,1-15-5.5,17.3,17.3,0,0,1-6-13.46c.23-6.42,3.54-11.82,7.29-16.8,4.82-6.4,10.85-13.25,10.44-21.89,0,.67,4.53,2.7,5.36,3.25,7.11,4.63,12,12.12,15.39,19.79S3602.84,717.72,3597.86,725.4Z"/><path class="cls-19" d="M3822.82,617.8h-15.14v-5.08a4.12,4.12,0,0,0-4.11-4.11h-14.75a4.12,4.12,0,0,0-4.11,4.11v5.08h-15.15a7.21,7.21,0,0,0-7.19,7.19V730.17a7.22,7.22,0,0,0,7.19,7.19h53.26a7.21,7.21,0,0,0,7.19-7.19V625A7.2,7.2,0,0,0,3822.82,617.8ZM3821.62,729h-50.86V626.19h50.86Z"/><rect class="cls-19" x="3773.89" y="705.35" width="44.54" height="20.41" rx="2.91"/><rect class="cls-19" x="3773.89" y="680.42" width="44.54" height="20.41" rx="2.91"/><text class="cls-20" transform="translate(1733.88 373.63)">p<tspan class="cls-21" x="47.23" y="0">r</tspan><tspan class="cls-22" x="73.54" y="0">o</tspan><tspan x="118.52" y="0">vide </tspan><tspan x="0" y="99.6">ca</tspan><tspan class="cls-23" x="77.19" y="99.6">r</tspan><tspan class="cls-24" x="104.66" y="99.6">bon emission fa</tspan><tspan class="cls-25" x="649.96" y="99.6">c</tspan><tspan class="cls-26" x="688.23" y="99.6">t</tspan><tspan class="cls-27" x="715.2" y="99.6">ors </tspan><tspan x="0" y="199.2">&amp; d</tspan><tspan class="cls-28" x="114.62" y="199.2">a</tspan><tspan class="cls-29" x="153.96" y="199.2">y</tspan><tspan class="cls-30" x="192.72" y="199.2">-ahead p</tspan><tspan class="cls-31" x="497.49" y="199.2">r</tspan><tspan class="cls-32" x="524.97" y="199.2">i</tspan><tspan class="cls-33" x="544.39" y="199.2">c</tspan><tspan x="581.07" y="199.2">es</tspan></text><text class="cls-34" transform="translate(228.16 510.28)">Ele<tspan class="cls-35" x="147.48" y="0">c</tspan><tspan x="202.79" y="0">t</tspan><tspan class="cls-36" x="242.51" y="0">r</tspan><tspan x="282.23" y="0">ici</tspan><tspan class="cls-37" x="392.15" y="0">t</tspan><tspan x="432.95" y="0">y </tspan><tspan class="cls-38" x="514.91" y="0">g</tspan><tspan class="cls-39" x="581.27" y="0">r</tspan><tspan x="620.99" y="0">id</tspan></text><line class="cls-40" x1="1157" y1="490" x2="1358" y2="490"/></g><g id="Isolationsmodus"><rect x="1358" y="204" width="321.14" height="509" rx="43.15"/><circle class="cls-41" cx="1518.18" cy="580.84" r="100.93"/><circle class="cls-42" cx="1514.95" cy="577.61" r="100.93"/><circle cx="1559.3" cy="578.45" r="14.01"/><circle cx="1474.36" cy="578.45" r="14.01"/><rect class="cls-3" x="1507.87" y="470.62" width="14.27" height="28.55"/><rect class="cls-3" x="1507.87" y="666.87" width="14.27" height="28.55"/><rect class="cls-43" x="1405.42" y="419.53" width="60.35" height="17.24" rx="7.6"/><rect class="cls-42" x="1406.71" y="420.93" width="59.05" height="16.61" rx="7.38"/><rect class="cls-43" x="1485.16" y="419.53" width="60.35" height="17.24" rx="7.6"/><rect class="cls-3" x="1486.46" y="420.93" width="59.05" height="16.61" rx="7.38"/><polygon class="cls-42" points="1640.16 428.89 1600.12 462.33 1624.16 461.93 1607.2 492.08 1651.44 453.86 1626.78 456.14 1640.16 428.89"/><rect class="cls-41" x="1439.87" y="202.4" width="161.71" height="229.39" rx="20.56" transform="translate(1203.64 1837.82) rotate(-90)"/><rect class="cls-42" x="1439.9" y="201.84" width="157.34" height="226.31" rx="20.14" transform="translate(1203.57 1833.57) rotate(-90)"/><text class="cls-44" transform="translate(1548.44 304.49)">CO<tspan class="cls-45" x="59.33" y="15.29">2</tspan></text><path class="cls-46" d="M1538.57,377.56c-12.66-30.57-19.18-41.39-25.31-40.76-10.78,1.11-15.43,37.32-25.31,36.68-4.9-.32-5.56-9.32-16.88-14.26-5.08-2.22-7.07-1.34-10.55-4.08-6.82-5.38-5-13.4-8.43-14.26-5.61-1.4-11.55,19.39-23.21,20.37-5,.42-9.49-2.95-12.65-6.11"/><path class="cls-46" d="M1416.23,311.29c10.09-4.47,4.12-31.81,14-37.38,1.77-1,3.66-.65,5.77-2.12,4-2.81,1.82-6.27,5.77-9,1.68-1.17,5.66-3.3,6.18-2.12,2.88,6.62,7.82,31,30.07,31.28,23.07.27,27.6-28.9,36.25-28.63,7.17.22,15.53,8.22,24.3,34.72"/><text class="cls-44" transform="translate(1548.44 379.08)">€</text></g><g id="Object"><path class="cls-40" d="M1821.3,786.5c99,31.78,245.8,68.91,404,69,249.54.14,457.55-161.9,518.37-212.88"/><path class="cls-47" d="M1655.36,795.9c1-2.14,2.62-5.7,4.71-10.32a25.2,25.2,0,0,1-3.12-1.33l-62.6-30.64c-3-1.48-8.84-5-9.44-9-.93-6.16,3.44-15.24,8.45-18.17,3.56-2.08,11.32-.22,12.25.19,20,9,38.59,18.54,58.62,27.51a48.1,48.1,0,0,1,8.33,4c8.9-19.51,19.92-43.45,30.51-65.64a28.21,28.21,0,0,1-2.82-1.22l-62.6-30.64c-3-1.48-8.84-5-9.44-9-.93-6.16,3.44-15.24,8.45-18.17,3.56-2.08,11.32-.22,12.24.19,20,9,38.6,18.54,58.63,27.51a46.49,46.49,0,0,1,8.75,4.21c6.7-13.4,12.67-24.71,17.07-31.85,19.48-31.64,97.45,38.41,103.38,91.92,6.86,61.77-32.69,96.33-46.27,106.77-49.59,37.89-108.49,24-130,14S1647.11,813.61,1655.36,795.9Z"/></g></svg>